<?xml version="1.0" encoding="UTF-8" standalone="no" ?>
<!DOCTYPE svg PUBLIC "-//W3C//DTD SVG 1.1//EN" "http://www.w3.org/Graphics/SVG/1.1/DTD/svg11.dtd">
<svg xmlns="http://www.w3.org/2000/svg" xmlns:xlink="http://www.w3.org/1999/xlink" version="1.1" width="1080" height="1080" viewBox="0 0 1080 1080" xml:space="preserve">
<desc>Created with Fabric.js 5.2.4</desc>
<defs>
</defs>
<rect x="0" y="0" width="100%" height="100%" fill="transparent"></rect>
<g transform="matrix(1 0 0 1 540 540)" id="6d9da8aa-a200-4109-9f86-194620fcb015"  >
<rect style="stroke: none; stroke-width: 1; stroke-dasharray: none; stroke-linecap: butt; stroke-dashoffset: 0; stroke-linejoin: miter; stroke-miterlimit: 4; fill: rgb(255,255,255); fill-rule: nonzero; opacity: 1; visibility: hidden;" vector-effect="non-scaling-stroke"  x="-540" y="-540" rx="0" ry="0" width="1080" height="1080" />
</g>
<g transform="matrix(1 0 0 1 540 540)" id="c7bb282c-09df-4b32-8472-e09866fbb163"  >
</g>
<g transform="matrix(10.13 0 0 10.13 539.5 539.5)" id="logo-2"  >
<path style="stroke: rgb(221,221,221); stroke-opacity: 0; stroke-width: 0; stroke-dasharray: none; stroke-linecap: butt; stroke-dashoffset: 0; stroke-linejoin: miter; stroke-miterlimit: 4; fill: rgb(255,255,255); fill-rule: evenodd; opacity: 1;" vector-effect="non-scaling-stroke"  transform=" translate(-45.24, -49.98)" d="M 52.749 0 C 56.43 -0.025 60.06 -0.012 62.885000000000005 0.833 C 64.27567854731889 1.2232498009302983 65.61305887345586 1.783122478898734 66.867 2.5000000000000018 C 67.72238562595956 3.0632536393586536 68.54659586416517 3.672481539206867 69.336 4.325000000000003 L 72.9 6.984 C 75.19300000000001 8.618 77.308 10.414 79.491 12.143 L 81.9 14.343 C 83.16686490019056 15.414004741127481 84.3151087226307 16.617900672917987 85.32500000000002 17.934000000000005 C 87.27272059060422 20.152105054148777 88.78601056836082 22.716658345303195 89.786 25.493999999999993 C 90.06134126270541 26.478396140010595 90.2675107479921 27.4808409631226 90.403 28.493999999999986 L 90.46300000000001 29.764 L 90.483 30.994 C 90.50963153835076 31.95574658211161 90.45644923943752 32.91804516056074 90.324 33.871 C 90.124 35.057 90.062 36.147000000000006 89.786 37.224000000000004 C 89.10470382144243 39.774884157472606 88.2404655141714 42.273354994734106 87.2 44.7 L 85.527 48.54900000000001 C 85.24845563014321 48.93674833962748 85.09557721586052 49.40061914460853 85.089 49.87800000000001 C 85.96386670108286 50.58730279351749 86.68835331966457 51.464098189726876 87.22 52.457 C 88.3139786619239 54.32165366898249 89.05025646978409 56.37414251889954 89.391 58.509 C 89.56800000000001 59.388000000000005 89.456 60.287000000000006 89.61 61.24700000000001 C 89.72058103907248 62.336823259495105 89.70043802800969 63.43596022982223 89.55 64.521 L 89.331 66.962 C 89.05247040074151 68.66243928407837 88.67279665746723 70.34475794600962 88.194 72 C 86.227 78.206 82.486 82.95 77.043 85.71000000000001 C 75.70494816259114 86.36106910252857 74.30360559609647 86.87308522916747 72.861 87.23800000000001 C 72.12401038547247 87.48275188073292 71.34397280965086 87.57063384342375 70.571 87.49600000000001 C 69.1228224882904 87.28197620863418 67.70542923038086 86.89556700923724 66.349 86.34500000000001 C 65.49143699993026 85.90693746095815 64.58139554714054 85.58029038115326 63.641 85.37300000000002 C 61.458000000000006 86.55900000000003 59.84700000000001 90.13500000000002 59.34100000000001 93.07300000000002 L 59.5 99.9 C 59.249192354558815 99.98626159061864 58.977913331677186 99.99324431965034 58.723 99.92 C 58.289241390252556 99.72734560990114 57.95070513954317 99.36900138707577 57.783 98.925 C 57.340400304507 98.31758529665055 56.85588633713818 97.74184904439092 56.332999999999984 97.202 C 54.96364584843721 95.80213079839966 53.32415128580915 94.69507221637191 51.51399999999999 93.948 C 50.50073661867231 93.58606460356137 49.39815215675566 93.55837732686352 48.367999999999995 93.869 C 47.54415043519607 94.27108746041093 46.81194053647404 94.8385416218101 46.217 95.536 L 46.177 95.536 C 45.589593306432086 94.91218395496927 44.91973602800058 94.37152064686308 44.186 93.929 C 41.42237237509773 91.8144971609809 37.876963989680505 91.00376365965363 34.469 91.70700000000001 C 32.92 92.07100000000001 31.516000000000002 92.864 30.337000000000003 93.165 C 29.333940050834528 93.4215561681487 28.320750041088072 93.63673810963256 27.300000000000008 93.81 C 26.192000000000004 93.958 25.700000000000003 94.035 23.966000000000005 94.19 C 22.59560444874024 94.28157610394662 21.220012664781358 94.26084022001629 19.853 94.128 C 19.25001083725439 94.09071545499293 18.657664189669006 93.95175742293951 18.101000000000006 93.717 C 17.901337694653805 93.62153629583095 17.760411176521416 93.4351255575606 17.723000000000006 93.217 L 17.743000000000006 93.217 C 17.817000000000007 93.458 19.635000000000005 93.638 20.351000000000006 93.574 C 21.218895133264414 93.50201936771285 22.082190836562248 93.38250666014106 22.93700000000001 93.216 C 24.26353942843117 92.9856032161211 25.522647381964102 92.46447527006978 26.62400000000001 91.69 C 29.812000000000005 89.368 31.665000000000006 85.737 33.215 81.769 C 33.749 80.402 34.015 78.89 34.449000000000005 77.444 C 34.842662175310956 76.01447022407027 35.15516115059281 74.56382060056632 35.385 73.09900000000002 C 35.496593241051855 72.47120436523853 35.563428270722305 71.83627158336927 35.58500000000001 71.199 C 35.598000000000006 70.588 35.729000000000006 70.547 36.07500000000001 71.346 C 36.70170711586338 72.57032161879818 37.12875722514827 73.88691879366858 37.34000000000002 75.24600000000001 L 37.360000000000014 75.24600000000001 C 37.421000000000014 74.96900000000001 37.542000000000016 74.694 37.59900000000001 74.373 C 37.70772510134142 73.58017472242724 37.722493929837405 72.77728750055432 37.64300000000001 71.98100000000001 C 37.53200000000001 70.19000000000001 37.42400000000001 69.37 37.36000000000001 68.52000000000001 C 37.34 68.09 37.27100000000001 67.674 37.251000000000005 67.24400000000001 C 37.102000000000004 66.33400000000002 37.039 65.55700000000002 36.882000000000005 64.65100000000001 C 36.682 63.49200000000001 36.367000000000004 62.26000000000001 37.24 61.57600000000001 C 37.65062205748938 61.25619503442491 38.11628788032691 61.01421148456611 38.614000000000004 60.86200000000001 C 40.67100000000001 60.23300000000001 43.483000000000004 61.07800000000001 45.325 61.46200000000001 C 46.00107696906021 61.63355676419498 46.70165835182211 61.687343553117785 47.396 61.62100000000001 C 48.132141320157416 61.55304134338414 48.86348375568649 61.44050143435523 49.58599999999999 61.284000000000006 C 52.20045180128599 60.487542322782716 54.50782206618538 58.90857649637145 56.19699999999999 56.760000000000005 C 56.934999999999995 55.846000000000004 57.99699999999999 55.291000000000004 58.467 54.101000000000006 C 59.46 51.59400000000001 58.22 47.309000000000005 57.567 45.25200000000001 C 55.82261444529271 39.608340323023 51.61087747532822 35.06150358191111 46.117000000000004 32.891000000000005 C 44.86767731516876 32.3984177584011 43.574126993126214 32.02639228395397 42.253999999999984 31.78 L 40.721000000000004 31.641000000000005 L 39.267 31.621000000000006 L 37.913000000000004 31.760000000000005 C 36.44629657449579 31.944350270583712 35.04261345724345 32.46747900306214 33.813 33.288 C 32.639 34.220000000000006 31.513 36.64 29.89 36.93900000000001 L 29.552 35.86800000000001 C 29.252 34.86800000000001 29.094 33.80500000000001 28.317 33.28900000000001 C 27.268505381929366 32.85466159802516 26.094410838361803 32.83358077694467 25.031 33.23000000000001 C 22.809893897738803 33.856962423163225 20.84759604286158 35.178009371893076 19.431 37.000000000000014 L 17.938 38.52800000000001 C 16.456 40.36100000000001 15.224999999999998 41.28700000000001 14.732 44.20300000000001 C 14.680710706024911 44.65967769537333 14.700953927138084 45.12156052377221 14.792000000000002 45.57200000000001 C 15.02174609535099 46.81423664682991 15.30736929307017 48.045486179053995 15.647999999999994 49.26200000000003 C 15.856651328176966 49.84794854418931 15.964511228246467 50.465015370605734 15.967 51.08700000000001 C 15.833314134178645 51.41841133054185 15.628491812740569 51.71642780823426 15.367 51.96000000000001 C 14.686 52.81900000000001 13.803 53.501000000000005 13.137 54.36000000000001 C 11.691964353008334 56.4551725890742 10.6611021567828 58.80745280634221 10.100000000000001 61.290000000000006 C 9.737000000000002 62.70400000000001 9.631000000000002 64.33600000000001 9.365000000000002 65.918 C 9.338000000000003 66.652 9.294000000000002 67.283 9.265000000000002 68.018 C 9.284000000000002 69.868 9.222000000000003 69.764 9.265000000000002 70.801 C 9.292000000000002 71.452 9.472000000000003 73.771 9.102000000000002 73.949 C 8.606015376496924 74.05403313228463 8.091130686976852 74.02678873143259 7.609000000000002 73.87 C 6.295510959656703 73.63903372385238 5.050393700015416 73.11693186525417 3.965 72.342 C 2.1787191640384393 70.94178245340183 0.9501723711758716 68.95057933977523 0.49999999999999734 66.726 C -0.35314786043107327 62.806247566664155 -0.1400890009897131 58.72946815894177 1.1169999999999973 54.920000000000016 C 1.505555846538089 53.798051874854636 1.999075021979405 52.71525607202069 2.590999999999993 51.68600000000001 C 2.7363180445618838 51.2614051010159 3.0441799529842775 50.91182358818113 3.4469999999999987 50.714 L 3.467 50.734 C 3.8200000000000003 50.914 3.767 51.734 3.767 52.262 C 3.6411571481872156 53.50451127747671 3.6747631817031206 54.75801632762007 3.8669999999999978 55.992000000000004 C 4.559 55.973 4.595 55.058 4.767 54.524 C 5.085 53.49 5.800000000000001 51.277 7.029 51.25 L 7.029 51.29 C 7.044809298152777 51.95768914099076 6.9158546630898545 52.62088440702865 6.651 53.234 C 6.338441117971074 54.66712420803232 6.211400077668478 56.13448183226812 6.273 57.599999999999994 C 6.273 58.179 6.207 59.659 6.492 59.9 L 6.532 59.86 C 7.37 59.444 7.638 57.046 7.966 56.010999999999996 C 8.39249050820072 54.45998439110476 8.993672724682922 52.96239654826071 9.758000000000003 51.547000000000004 C 10.451 50.393 11.328000000000001 49.427 12.028 48.293 C 12.34 47.788 13.438 46.05 12.844000000000001 45.193 C 12.431348740185127 44.94166418874048 11.916768642324058 44.92646241332361 11.490000000000002 45.153 C 11.028490474865624 45.28016364953108 10.59123703334556 45.48290867651102 10.196000000000003 45.753 C 10.00288195439864 45.96396511613506 9.773609872233315 46.138713113767714 9.519000000000002 46.269 C 9.274929862904902 46.29594454956158 9.03218695514344 46.20801028464952 8.862000000000002 46.031 C 8.883000000000003 45.352 9.651000000000002 44.985 9.539000000000001 44.285 C 9.185783164652058 44.05373591412066 8.72177253549028 44.08603268919007 8.404000000000002 44.364 C 7.780000000000002 44.769 7.304000000000002 45.337999999999994 6.731000000000002 45.793 C 6.549911663990752 46.020962540129645 6.283822432844408 46.165380033289125 5.9940000000000015 46.193 L 5.9940000000000015 46.172999999999995 L 6.671000000000001 45.019999999999996 C 7.505883690000946 43.76772981513528 8.65344055267467 42.755301306372075 9.999999999999998 42.083 C 11.733 41.327999999999996 13.643 41.769 14.6 40.158 C 15.347999999999999 38.898 15.182 36.844 15.5 35.138000000000005 C 15.982 32.52100000000001 16.166 29.803000000000004 16.715 27.301000000000005 L 17.153 25.138000000000005 C 17.778513342874035 23.011556748086107 18.65431111109499 20.966909677854677 19.762 19.04700000000001 C 20.271 18.176000000000005 20.683 17.273000000000003 21.255 16.468000000000004 C 22.112 15.263000000000003 23.108999999999998 14.160000000000004 24.023 13.016000000000004 C 25.22645246058704 11.48177390114239 26.5879426341144 10.078386565701962 28.085 8.82900000000001 C 29.840814441011354 7.202226029892747 31.689233276729876 5.678348940619025 33.620999999999974 4.265000000000025 C 36.036930205326264 2.801446277240141 38.67261684520213 1.7361642699626136 41.42699999999999 1.110000000000003 C 42.627 0.8100000000000043 43.909 0.6970000000000043 45.191 0.4750000000000043 L 49.174 0.13800000000000429 L 50.409 0.07800000000000429 z M 37.635 23.155 C 37.6246436410844 22.438122108933133 37.106179837171915 21.8298192329257 36.4 21.706 C 36.13776379352333 21.68718114941772 35.87550449705688 21.742265995042775 35.643 21.865 C 35.911 20.615 37.894 20.041999999999998 39.626 20.357 C 42.561 20.89 44.226 22.616999999999997 47.531 22.679 C 47.18392121521319 20.26189989426833 45.95726065042302 18.05782764577742 44.08599999999999 16.48899999999999 C 43.34447417346403 15.931896233608196 42.419263553715275 15.676739654813058 41.497 15.774999999999997 C 41.584067624575205 15.41608124672669 41.80472447437316 15.103871473835897 42.114 14.901999999999997 C 42.32177132379204 14.692216581080565 42.557292701911386 14.511874497263467 42.814 14.365999999999998 C 44.262 13.729999999999999 46.555 14.071999999999997 47.971000000000004 14.504999999999997 C 50.460681493285406 15.277633243517881 52.808029407455905 16.450293956899174 54.921000000000014 17.977000000000004 C 55.75000000000001 18.566999999999997 56.461000000000006 19.290999999999997 57.251000000000005 19.920999999999996 C 58.15420286220251 20.749545124853036 59.142731321998205 21.479963406946908 60.2 22.1 C 60.59059999749395 22.391259877812203 61.0668383292694 22.544612841367666 61.554 22.536 C 62.662 22.336000000000002 62.282000000000004 20.585 61.992000000000004 19.778000000000002 C 61.86900000000001 19.434 61.517 19.031000000000002 61.972 18.925 C 62.68506895408069 18.815489114945066 63.41426555015464 18.94823035913622 64.043 19.302 C 65.46176997119238 20.09978431714151 66.65948820874111 21.238389918575926 67.528 22.615 C 71.283 27.932 71.715 36.948 72.287 45.373 L 73.462 45.772999999999996 C 74.19918711905078 45.9539447824793 74.91897655480295 46.19956330681315 75.613 46.507 L 76.113 45.059 C 76.434 44.052 76.688 43.012 76.929 41.924 C 77.393 39.839 77.473 37.662 77.845 35.456 L 77.984 33.075 L 78.024 31.250000000000004 L 78.004 29.762000000000004 L 77.964 28.036000000000005 L 77.964 25.556000000000004 L 77.92399999999999 23.612000000000005 C 77.72399999999999 22.412000000000006 77.80799999999999 21.212000000000007 77.56599999999999 20.120000000000005 C 76.91870122760048 17.128114058307574 75.55809709055308 14.336920094863883 73.6 11.984000000000002 C 72.91832430416531 11.144293510123275 72.15008483113031 10.37873550121754 71.308 9.699999999999998 C 69.408 8.178999999999998 67.68700000000001 6.43 65.23500000000001 5.453999999999999 C 62.53500000000001 4.381999999999999 58.228000000000016 4.5299999999999985 55.13500000000001 5.175999999999998 C 54.09500000000001 5.393999999999998 53.03500000000001 5.486999999999998 52.10800000000001 5.775999999999998 C 47.646000000000015 7.135999999999998 44.561000000000014 9.525999999999998 41.31500000000001 12.045999999999998 C 38.06900000000001 14.565999999999997 34.35800000000001 18.019 32.61500000000001 21.967 C 32.25800000000001 22.775 32.02600000000001 23.612 31.71500000000001 24.506999999999998 C 32.16296834318499 24.470099138340423 32.604471348898045 24.376691348699456 33.02900000000001 24.229 L 35.81700000000001 23.535 C 36.40253244351168 23.32494563128303 37.01435368266612 23.197062203957017 37.635000000000005 23.155 z M 24.134999999999998 39.921 L 24.194999999999997 39.921 L 23.794999999999998 40.615 L 23.1 42.1 C 22.531078461409965 43.664473455860204 22.07851346458915 45.26883976659872 21.74600000000001 46.9 L 21.346000000000004 48.983 L 21.246000000000002 48.983 C 20.952352159791307 48.895692544707984 20.639647840208696 48.895692544707984 20.346000000000004 48.983 L 20.306000000000004 48.943 C 19.848734461104673 47.84511732041002 19.737443398499572 46.63382399951689 19.987000000000005 45.471000000000004 C 20.459000000000007 43.218999999999994 21.327000000000005 41.43899999999999 23.000000000000007 40.4 C 23.343000000000007 40.181999999999995 23.752000000000006 40.119 24.134000000000007 39.921 z M 43.211 40.521 C 43.58358370508254 40.53494986613508 43.95303121839651 40.59473319101679 44.311 40.699 L 43.933 41.711 L 43.017 43.973 C 42.399 45.428 41.767 46.852 41.145 48.259 C 40.84394328706061 49.06690844502968 40.41884481932974 49.82297643406529 39.885000000000005 50.5 C 38.958000000000006 50.389 38.572 49.43 37.77400000000001 49.151 C 37.84071661234237 48.105902065727584 38.0831120209051 47.07952485457494 38.49100000000001 46.11500000000001 C 39.169000000000004 43.987 39.784000000000006 42.168 41.498000000000005 41.095 C 41.848724074605755 40.87161971632532 42.2314546315862 40.70301594673041 42.633 40.595 z M 25.866999999999997 49.167 C 24.852999999999998 49.167 23.839 49.131 22.839999999999996 49.147 L 22.839999999999996 49.126999999999995 C 23.2665215710101 48.074831570028 24.256245189575736 47.35845649107406 25.388999999999996 47.282 C 25.768911720729196 47.83282385918523 25.938525976907677 48.50170016231585 25.866999999999997 49.166999999999994 z M 31.561999999999998 48.512 C 32.36724287731344 48.50273587748381 33.17038231625205 48.59615544402144 33.952 48.79 L 34.152 49.822 C 34.26722133541914 50.14616240740713 34.30154876180503 50.49355596243238 34.252 50.834 C 33.242000000000004 51.907000000000004 30.921000000000003 50.496 30.090000000000003 50.14 L 29.053000000000004 49.8 L 29.093000000000004 49.76 C 29.450776047614294 49.13683444438075 30.074925789804453 48.71250109927687 30.786000000000005 48.608999999999995 z M 71.407 50.992 C 71.419 49.851 70.407 49.646 69.416 49.483999999999995 L 68.73899999999999 49.483999999999995 L 67.939 50.178999999999995 C 65.62373551300075 52.55036381537608 63.981202674633515 55.495119053230525 63.17999999999999 58.711000000000006 C 62.90599999999999 59.687999999999995 62.297999999999995 61.253 63.00099999999999 62.183 C 63.09569146471477 62.353870008607046 63.25254374695966 62.481715361943635 63.43899999999999 62.54 C 63.70553444809492 62.005978222863455 64.25630610513095 61.6737234679471 64.853 61.687 C 65.645 62.387 65.46499999999999 64.652 65.729 65.93299999999999 L 66.029 67.02399999999999 L 66.04899999999999 66.98399999999998 C 66.3066706306664 66.5158763110769 66.50071671474961 66.01545937326786 66.62599999999999 65.49599999999998 C 67.169 63.95399999999998 67.517 62.22599999999998 68.02 60.634999999999984 C 68.79081134130975 58.588136846861175 69.86480035182488 56.66871015951867 71.20599999999999 54.94099999999999 C 71.74680813818388 54.14756000640637 72.18181100301189 53.286967012619904 72.49999999999999 52.38099999999998 C 72.65927363459117 52.04618826585046 72.74096795474328 51.679760185502985 72.73899999999999 51.308999999999976 C 72.3790838511593 50.9812526440758 71.87596936463852 50.86151743970111 71.407 50.991999999999976 z M 21.086999999999996 52.757999999999996 C 23.76030644579268 52.780550433983684 26.279319592558508 54.01357978888965 27.936999999999998 56.111 C 28.296 56.556 28.723 56.958999999999996 29.072 57.421 C 30.222930842380183 58.944122249554425 31.09908668663431 60.65650099498736 31.660999999999994 62.480999999999995 C 33.08 67.009 32.213 73.419 30.944 77.421 C 30.599999999999998 78.5 30.114 79.5 29.689999999999998 80.5 C 28.878999999999998 82.4 28.349999999999998 83.954 26.066 84.409 C 25.519849471433616 84.50652813540738 24.961350331000535 84.5132855357756 24.413 84.429 L 23.2 84.147 C 22.124912316732924 83.75220208578207 21.12241928087749 83.18253465792489 20.233 82.46100000000001 C 19.84629072636603 82.08956368094117 19.33499892334618 81.87563405624667 18.799 81.86100000000002 C 18.309 81.98900000000002 18.064 82.86900000000001 17.883 83.32900000000002 L 17.525 84.44000000000003 C 16.968 86.66200000000002 20.445999999999998 87.36200000000002 21.825 88.03100000000002 L 21.805 88.07100000000003 C 21.384066241682877 88.36218354877268 20.937567213696568 88.61455256459102 20.471 88.82500000000003 C 19.723328043601185 88.96372057182049 18.951022629358867 88.86657084097915 18.261 88.54700000000003 C 16.593999999999998 87.82700000000003 15.724 86.22100000000003 14.815999999999999 84.73800000000003 C 13.994360361126487 83.4084846730305 13.294515803993198 82.00745678390571 12.724999999999994 80.55200000000002 C 11.541999999999998 77.51900000000002 11.399999999999999 73.53000000000002 11.390999999999998 69.36200000000002 C 11.284125663249371 67.66252679890123 11.310874554695296 65.95728496922347 11.470999999999997 64.26200000000004 C 11.590241314719556 63.23886143522518 11.77664358373983 62.224672745717015 12.028999999999995 61.226000000000035 C 12.976533421672162 58.061396395181575 15.080766147351646 55.369520801081926 17.923 53.68600000000003 C 18.55424142768262 53.33608694666852 19.231048077689284 53.0755954762035 19.933999999999997 52.91200000000003 z M 75.80699999999999 53.157999999999994 L 75.30699999999999 53.276999999999994 C 74.90760016383551 53.435760577179636 74.53231326653915 53.64948898954124 74.192 53.91199999999999 C 73.5650915704885 54.470177582952914 73.05142329346766 55.14375184707012 72.67899999999999 55.895999999999994 C 71.47454452010533 58.14607954265458 70.6024840711783 60.55881380131209 70.08999999999999 63.059 C 69.83399999999999 64.1 69.79999999999998 65.2 69.615 66.329 C 69.43758235155957 66.80748556763638 69.54557709803301 67.34513683233745 69.89399999999999 67.71799999999999 C 70.33233043385472 67.80160092172235 70.77019341142582 67.57084090700242 70.949 67.16199999999999 C 71.1189659910011 66.76152850503641 71.23919607898208 66.34173071180676 71.307 65.91199999999999 L 72.024 63.19399999999999 C 72.73945422182892 61.0548404612274 73.86171122037521 59.07416721689441 75.32900000000001 57.36099999999999 C 76.04800108147104 56.709283142190486 76.72001082220812 56.00753254271366 77.34000000000002 55.26099999999998 C 77.989 54.16399999999999 76.982 53.139999999999986 75.808 53.15499999999999 z" stroke-linecap="round" />
</g>
<g transform="matrix(NaN NaN NaN NaN 0 0)"  >
<g style=""   >
</g>
</g>
<g transform="matrix(NaN NaN NaN NaN 0 0)"  >
<g style=""   >
</g>
</g>
<g transform="matrix(NaN NaN NaN NaN 0 0)"  >
<g style=""   >
</g>
</g>
</svg>